<svg id="Layer_1" data-name="Layer 1" xmlns="http://www.w3.org/2000/svg" xmlns:xlink="http://www.w3.org/1999/xlink" viewBox="0 0 864.05 431.06"><defs><style>.cls-1{fill:#fff;}.cls-2{fill:url(#linear-gradient);}.cls-3{opacity:0.99;}.cls-4{fill:none;stroke:#231f20;stroke-miterlimit:10;stroke-width:3px;}.cls-5{fill:#1c1c1c;}</style><linearGradient id="linear-gradient" x1="432.02" y1="-11.84" x2="432.02" y2="403.04" gradientUnits="userSpaceOnUse"><stop offset="0" stop-color="#2f0059"/><stop offset="1" stop-color="#7121ce"/></linearGradient></defs><polygon class="cls-1" points="387.47 281.06 352.33 0 288.39 0 241.6 310.9 234.27 124.92 175.74 124.92 147.11 282.36 0 282.36 0 324.36 182.16 324.36 196.91 243.29 204.31 431.06 265.99 431.06 319.47 75.72 350.39 323.06 864.05 323.06 864.05 281.06 387.47 281.06"/><polygon class="cls-2" points="387.47 281.06 352.33 0 288.39 0 241.6 310.9 234.27 124.92 175.74 124.92 147.11 282.36 0 282.36 0 324.36 182.16 324.36 196.91 243.29 204.31 431.06 265.99 431.06 319.47 75.72 350.39 323.06 864.05 323.06 864.05 281.06 387.47 281.06"/><g class="cls-3"><path class="cls-4" d="M512.36,447.84s-12-8.51-13.59,7.3" transform="translate(-63.4 -289.76)"/><path class="cls-4" d="M504.84,445.32s9.5-14.21,19.52,1.1v61s-7.14,19.67-21.33,4.46c0,0-13.59,1.32-11.15-12.17,0,0-7.24-5.27-2-13.18,0,0-7-11.22,3.51-16.69,0,0-5.3-11.49,5.41-14.74,11-3.33,13.18,11.09,13.18,11.09" transform="translate(-63.4 -289.76)"/><path class="cls-4" d="M501.34,465.21s2.16,14.47,16.08,7.3" transform="translate(-63.4 -289.76)"/><path class="cls-4" d="M504.58,481.43s6.22.41,6.49-6.08" transform="translate(-63.4 -289.76)"/><path class="cls-4" d="M501.32,488.08s-6.72,4-12.72-4.33" transform="translate(-63.4 -289.76)"/><path class="cls-4" d="M501.32,500.82s10.56,0,9.75,11.76" transform="translate(-63.4 -289.76)"/><path class="cls-4" d="M503.5,495.36s2.47-7.37,12.19-6.68" transform="translate(-63.4 -289.76)"/><path class="cls-4" d="M512.61,493.65s8.21-1.73,11.75,8.72" transform="translate(-63.4 -289.76)"/><path class="cls-4" d="M524.36,466.09s-.85-4-6.94-6.15" transform="translate(-63.4 -289.76)"/><path class="cls-4" d="M537.91,447.84s12-8.51,13.59,7.3" transform="translate(-63.4 -289.76)"/><path class="cls-4" d="M545.43,445.32s-9.5-14.21-19.52,1.1v61s7.14,19.67,21.33,4.46c0,0,13.59,1.32,11.16-12.17,0,0,7.23-5.27,2-13.18,0,0,7-11.22-3.51-16.69,0,0,5.3-11.49-5.41-14.74-11-3.33-13.18,11.09-13.18,11.09" transform="translate(-63.4 -289.76)"/><path class="cls-4" d="M548.93,465.21s-2.16,14.47-16.08,7.3" transform="translate(-63.4 -289.76)"/><path class="cls-4" d="M545.69,481.43s-6.22.41-6.49-6.08" transform="translate(-63.4 -289.76)"/><path class="cls-4" d="M549,488.08s6.72,4,12.72-4.33" transform="translate(-63.4 -289.76)"/><path class="cls-4" d="M549,500.82s-10.56,0-9.75,11.76" transform="translate(-63.4 -289.76)"/><path class="cls-4" d="M546.77,495.36s-2.47-7.37-12.18-6.68" transform="translate(-63.4 -289.76)"/><path class="cls-4" d="M537.66,493.65s-8.21-1.73-11.75,8.72" transform="translate(-63.4 -289.76)"/><path class="cls-4" d="M525.91,466.09s.85-4,6.94-6.15" transform="translate(-63.4 -289.76)"/></g><path class="cls-5" d="M525.14,414.64a64.09,64.09,0,1,0,64.08,64.08A64.08,64.08,0,0,0,525.14,414.64ZM558.4,500c2.43,13.49-11.16,12.17-11.16,12.17-14.19,15.21-21.33-4.46-21.33-4.46v-.18l-1.55-.13v.31s-7.14,19.67-21.33,4.46c0,0-13.59,1.32-11.15-12.17,0,0-7.24-5.27-2-13.18,0,0-7-11.22,3.51-16.69,0,0-5.3-11.49,5.41-14.74.71-6.89,3.38-9.16,6.16-9.53l-.09-.29s9.5-14.21,19.52,1.1v.06l1.55.3v-.36c10-15.31,19.52-1.1,19.52-1.1l-.09.29c2.78.37,5.45,2.64,6.16,9.53,10.71,3.25,5.41,14.74,5.41,14.74,10.49,5.47,3.51,16.69,3.51,16.69C565.63,494.7,558.4,500,558.4,500Z" transform="translate(-63.4 -289.76)"/><path class="cls-5" d="M593.49,529.44l51.94-75.94c5-6.93,9.72-13.06,14.94-20V433H598.23V414.06h87.51l-.24,14.65-51.22,74.88c-4.74,7.19-9.49,13.59-14.7,20.25v.53h67.11V543h-93.2Z" transform="translate(-63.4 -289.76)"/><path class="cls-5" d="M718,482.76c.47,30.38,18.49,42.9,39.36,42.9,14.94,0,23.95-2.81,31.78-6.39l3.56,16.09c-7.35,3.58-19.92,7.66-38.18,7.66-35.34,0-56.45-25-56.45-62.31s20.4-66.65,53.84-66.65c37.47,0,47.43,35.5,47.43,58.23a93.06,93.06,0,0,1-.71,10.47Zm61.18-16.09c.24-14.3-5.45-36.52-28.93-36.52-21.11,0-30.36,20.94-32,36.52Z" transform="translate(-63.4 -289.76)"/><path class="cls-5" d="M845.82,473.29h.47c2.85-4.52,6.88-10.11,10.2-14.63l33.67-44.45H915.3l-44.35,53L921.47,543H896.09l-39.6-61.74-10.67,13.31V543H825.18v-192h20.64Z" transform="translate(-63.4 -289.76)"/></svg>